HIERARCHY
ROOT hip
{
  OFFSET 0 0 0
  CHANNELS 6 Xposition Yposition Zposition Zrotation Yrotation Xrotation
  JOINT abdomen
  {
    OFFSET 0 20.6881 -0.73152
    CHANNELS 3 Zrotation Xrotation Yrotation
    JOINT chest
    {
      OFFSET 0 11.7043 -0.48768
      CHANNELS 3 Zrotation Xrotation Yrotation
      JOINT neck
      {
        OFFSET 0 22.1894 -2.19456
        CHANNELS 3 Zrotation Xrotation Yrotation
        JOINT head
        {
          OFFSET -0.24384 7.07133 1.2192
          CHANNELS 3 Zrotation Xrotation Yrotation
          JOINT leftEye
          {
            OFFSET 4.14528 8.04674 8.04672
            CHANNELS 3 Zrotation Xrotation Yrotation
            End Site
            {
              OFFSET 1 0 0
            }
          }
          JOINT rightEye
          {
            OFFSET -3.6576 8.04674 8.04672
            CHANNELS 3 Zrotation Xrotation Yrotation
            End Site
            {
              OFFSET 1 0 0
            }
          }
        }
      }
      JOINT rCollar
      {
        OFFSET -2.68224 19.2634 -4.8768
        CHANNELS 3 Zrotation Xrotation Yrotation
        JOINT rShldr
        {
          OFFSET -8.77824 -1.95073 1.46304
          CHANNELS 3 Zrotation Xrotation Yrotation
          JOINT rForeArm
          {
            OFFSET -28.1742 -1.7115 0.48768
            CHANNELS 3 Zrotation Xrotation Yrotation
            JOINT rHand
            {
              OFFSET -22.5879 0.773209 7.07136
              CHANNELS 3 Zrotation Xrotation Yrotation
              JOINT rThumb1
              {
                OFFSET -1.2192 -0.487915 3.41376
                CHANNELS 3 Zrotation Xrotation Yrotation
                JOINT rThumb2
                {
                  OFFSET -3.37035 -0.52449 3.41376
                  CHANNELS 3 Zrotation Xrotation Yrotation
                  End Site
                  {
                    OFFSET -1.78271 -1.18214 1.43049
                  }
                }
              }
              JOINT rIndex1
              {
                OFFSET -7.75947 0.938293 5.60832
                CHANNELS 3 Zrotation Xrotation Yrotation
                JOINT rIndex2
                {
                  OFFSET -2.54057 -0.884171 1.56538
                  CHANNELS 3 Zrotation Xrotation Yrotation
                  End Site
                  {
                    OFFSET -1.62519 -0.234802 1.16502
                  }
                }
              }
              JOINT rMid1
              {
                OFFSET -8.24714 1.18213 3.41376
                CHANNELS 3 Zrotation Xrotation Yrotation
                JOINT rMid2
                {
                  OFFSET -3.10165 -0.590103 1.0647
                  CHANNELS 3 Zrotation Xrotation Yrotation
                  End Site
                  {
                    OFFSET -2.48547 -0.328903 0.83742
                  }
                }
              }
              JOINT rRing1
              {
                OFFSET -8.82822 0.546677 1.51678
                CHANNELS 3 Zrotation Xrotation Yrotation
                JOINT rRing2
                {
                  OFFSET -2.60934 -0.819778 -0.0198488
                  CHANNELS 3 Zrotation Xrotation Yrotation
                  End Site
                  {
                    OFFSET -2.33842 -0.294052 0.168128
                  }
                }
              }
              JOINT rPinky1
              {
                OFFSET -8.27202 -0.0477905 -0.4584
                CHANNELS 3 Zrotation Xrotation Yrotation
                JOINT rPinky2
                {
                  OFFSET -1.82734 -0.647385 -0.700984
                  CHANNELS 3 Zrotation Xrotation Yrotation
                  End Site
                  {
                    OFFSET -1.69225 -0.51767 -0.607171
                  }
                }
              }
            }
          }
        }
      }
      JOINT lCollar
      {
        OFFSET 2.68224 19.2634 -4.8768
        CHANNELS 3 Zrotation Xrotation Yrotation
        JOINT lShldr
        {
          OFFSET 8.77824 -1.95073 1.46304
          CHANNELS 3 Zrotation Xrotation Yrotation
          JOINT lForeArm
          {
            OFFSET 28.1742 -1.7115 0.48768
            CHANNELS 3 Zrotation Xrotation Yrotation
            JOINT lHand
            {
              OFFSET 22.5879 0.773209 7.07136
              CHANNELS 3 Zrotation Xrotation Yrotation
              JOINT lThumb1
              {
                OFFSET 1.2192 -0.487915 3.41376
                CHANNELS 3 Zrotation Xrotation Yrotation
                JOINT lThumb2
                {
                  OFFSET 3.37035 -0.52449 3.41376
                  CHANNELS 3 Zrotation Xrotation Yrotation
                  End Site
                  {
                    OFFSET 1.78271 -1.18214 1.43049
                  }
                }
              }
              JOINT lIndex1
              {
                OFFSET 7.75947 0.938293 5.60832
                CHANNELS 3 Zrotation Xrotation Yrotation
                JOINT lIndex2
                {
                  OFFSET 2.54057 -0.884171 1.56538
                  CHANNELS 3 Zrotation Xrotation Yrotation
                  End Site
                  {
                    OFFSET 1.62519 -0.234802 1.16502
                  }
                }
              }
              JOINT lMid1
              {
                OFFSET 8.24714 1.18213 3.41376
                CHANNELS 3 Zrotation Xrotation Yrotation
                JOINT lMid2
                {
                  OFFSET 3.10165 -0.590103 1.0647
                  CHANNELS 3 Zrotation Xrotation Yrotation
                  End Site
                  {
                    OFFSET 2.48547 -0.328903 0.83742
                  }
                }
              }
              JOINT lRing1
              {
                OFFSET 8.82822 0.546677 1.51678
                CHANNELS 3 Zrotation Xrotation Yrotation
                JOINT lRing2
                {
                  OFFSET 2.60934 -0.819778 -0.0198488
                  CHANNELS 3 Zrotation Xrotation Yrotation
                  End Site
                  {
                    OFFSET 2.33842 -0.294052 0.168128
                  }
                }
              }
              JOINT lPinky1
              {
                OFFSET 8.27202 -0.0477905 -0.4584
                CHANNELS 3 Zrotation Xrotation Yrotation
                JOINT lPinky2
                {
                  OFFSET 1.82734 -0.647385 -0.700984
                  CHANNELS 3 Zrotation Xrotation Yrotation
                  End Site
                  {
                    OFFSET 1.69225 -0.51767 -0.607171
                  }
                }
              }
            }
          }
        }
      }
    }
  }
  JOINT rButtock
  {
    OFFSET -8.77824 4.35084 1.2192
    CHANNELS 3 Zrotation Xrotation Yrotation
    JOINT rThigh
    {
      OFFSET 0 -1.70687 -2.19456
      CHANNELS 3 Zrotation Xrotation Yrotation
      JOINT rShin
      {
        OFFSET 0 -36.8199 0.73152
        CHANNELS 3 Zrotation Xrotation Yrotation
        JOINT rFoot
        {
          OFFSET 0.73152 -45.1104 -5.12064
          CHANNELS 3 Zrotation Xrotation Yrotation
          End Site
          {
            OFFSET -1.1221 -3.69964 12.103
          }
        }
      }
    }
  }
  JOINT lButtock
  {
    OFFSET 8.77824 4.35084 1.2192
    CHANNELS 3 Zrotation Xrotation Yrotation
    JOINT lThigh
    {
      OFFSET 0 -1.70687 -2.19456
      CHANNELS 3 Zrotation Xrotation Yrotation
      JOINT lShin
      {
        OFFSET 0 -36.8199 0.73152
        CHANNELS 3 Zrotation Xrotation Yrotation
        JOINT lFoot
        {
          OFFSET -0.73152 -45.1104 -5.12064
          CHANNELS 3 Zrotation Xrotation Yrotation
          End Site
          {
            OFFSET 1.1221 -3.69964 12.103
          }
        }
      }
    }
  }
}
MOTION
Frames:	7
Frame Time:	0.03333
0.0 0.0 0.0 0.0 0.0 0.0 0.0 0.0 0.0 0.0 0.0 0.0 0.0 0.0 0.0 0.0 0.0 0.0 0.0 0.0 0.0 0.0 0.0 0.0 0.0 0.0 0.0 0.0 0.0 0.0 0.0 0.0 0.0 0.0 0.0 0.0 0.0 0.0 0.0 0.0 0.0 0.0 0.0 0.0 0.0 0.0 0.0 0.0 0.0 0.0 0.0 0.0 0.0 0.0 0.0 0.0 0.0 0.0 0.0 0.0 0.0 0.0 0.0 0.0 0.0 0.0 0.0 0.0 0.0 0.0 0.0 0.0 0.0 0.0 0.0 0.0 0.0 0.0 0.0 0.0 0.0 0.0 0.0 0.0 0.0 0.0 0.0 0.0 0.0 0.0 0.0 0.0 0.0 0.0 0.0 0.0 0.0 0.0 0.0 0.0 0.0 0.0 0.0 0.0 0.0 0.0 0.0 0.0 0.0 0.0 0.0 0.0 0.0 0.0 0.0 0.0 0.0 0.0 0.0 0.0 0.0 0.0 0.0 0.0 0.0 0.0 0.0 0.0 0.0 0.0 0.0 0.0
0.1936 62.923899999999996 0.20779999999999998 -179.712387 -13.655692 178.856885 0.271065 4.053527 -0.360881 10.01697 0.789166 -67.45769 -2.523383 -0.285709 -149.667115 49.293521 17.402148 91.51596 -152.061471 7.408452 29.176052 -95.434049 -6.472363 -7.1157 64.047029 31.294223 13.610565 -154.385509 29.733888 165.461906 178.960714 -9.896806 2.241727 11.31588 -31.469792 -91.05077 9.377718 -14.66406 39.945104 -165.571768 11.526922 -42.120886 -140.017208 -43.985587 -103.760296 7.917109 -58.145147 85.641166 -29.211532 -8.119063 -118.472795 -136.975459 31.86657 138.974882 -87.662224 12.904732 -116.295875 -1.991899 -6.982635 20.27774 19.311629 3.587896 -65.816764 -146.654431 -35.023117 -129.151572 -69.248238 18.985565 -6.892032 -17.257739 -26.104266 -9.250766 174.785307 15.164436 12.71579 -6.375356 3.401926 68.009052 -2.086661 -11.067134 -27.487162 90.870904 41.85817 19.796897 -47.042344 -35.701747 -82.297155 25.913986 -67.658273 121.919639 -19.961973 -5.311346 -40.16913 82.412274 -60.075039 161.050497 -87.243007 -4.046592 84.517367 -13.321507 -47.034494 -31.129301 105.172763 30.420776 77.218928 145.370534 4.314799 146.440268 -0.184299 -50.222066 -0.246407 -1.070869 51.646772 0.273424 -2.444573 -5.76851 -24.70071 56.003113 -42.263346 -112.768443 -56.221637 -11.40857 -89.380191 -12.683594 55.957148 172.094518 -6.055277 1.662495 -120.219317 -59.572302 67.612038 57.188371
-1.4656 66.6733 3.1231999999999998 -178.06176 36.221145 -168.98467 -3.180495 6.995896 -49.331296 9.632097 -2.815739 55.468761 -4.773495 36.284033 -171.437278 -0.945041 42.46007 158.637245 5.427242 -0.731875 -15.349112 -23.984006 -2.647851 12.419084 -139.032767 -71.618454 -162.177666 -97.317657 -46.525197 -108.631842 45.497669 28.420122 -119.612858 173.796982 11.488538 140.279056 -162.143923 5.185421 87.782921 -179.137133 -34.781497 102.048469 -164.210501 1.107521 103.479201 -3.80439 -3.877441 13.155434 171.197102 -55.22878 133.975633 -4.99074 -4.183897 9.480317 -1.881409 -36.891398 -6.678028 -106.345448 40.474482 118.732289 -107.564839 56.049705 133.041279 34.999647 45.323821 12.413097 154.76218 7.47545 -156.05137 54.683718 10.083545 3.967664 176.95357 -0.797277 119.765395 7.177222 7.09607 3.269169 6.662791 1.182175 5.048443 115.816107 -8.447988 -81.087969 151.858483 10.427809 -112.628968 169.293235 19.554894 -98.486498 165.511657 -2.710733 -129.960136 -69.905487 -58.981788 -58.847208 154.840672 -18.600677 169.023098 93.12918 -72.427121 101.413608 -0.442094 -50.524263 -20.661305 150.253719 -8.831322 100.429703 -113.289208 55.773857 -37.780899 134.673447 12.249529 67.791209 67.025925 35.328583 -144.77256 88.191871 29.895377 11.444263 6.700078 -5.084368 10.131181 -7.703166 -45.276074 162.966109 61.736734 -58.119765 147.855393 -162.808859 55.225343 -115.136496
-1.5474999999999999 72.2384 4.3925 -177.730751 33.73034 -173.507292 -1.940601 9.862986 -152.831493 -0.992323 7.308358 153.574196 -4.528589 27.346299 162.992594 -17.000958 31.955769 -174.767144 16.86123 2.488603 16.674643 139.120065 -10.167664 26.851114 -150.476388 13.582865 155.828602 -41.204365 27.298576 6.084063 -9.13018 -25.192409 -105.320116 159.426059 -31.932611 131.124085 -10.321061 -0.75836 11.529658 -1.224882 40.010698 -3.83985 -150.265673 -5.461344 85.113856 7.547333 -6.952635 46.081294 -29.027242 10.374766 8.38986 -108.003204 59.785567 150.684144 -141.22505 -39.818394 176.927087 -125.066103 -58.419682 -156.186697 -141.854331 -25.892575 -124.230246 -145.425845 18.541074 -130.797 -1.410498 13.534769 3.884468 -74.211841 6.437611 -37.938097 -168.030088 -9.559721 -71.709322 -179.874737 -4.064642 -144.060311 170.040054 -4.710607 -89.643801 44.238881 -2.188881 1.308751 154.992199 -5.962164 -91.569343 -25.016602 -12.428295 -48.245462 -0.470209 -30.801085 -1.538908 -175.389911 50.50808 167.84882 -7.600211 50.644152 7.243931 75.004439 52.522687 -73.900425 -27.214479 2.4875 6.250432 178.381501 38.477495 172.399804 -27.846759 1.595287 1.173219 26.938076 -42.011944 -153.629202 -67.992142 -42.106201 -116.908902 164.537284 19.681811 156.961369 -66.399178 72.169062 -97.694429 139.312545 48.245055 171.759469 65.659637 -41.106239 59.444182 151.154208 40.824995 131.361109
-1.3599999999999999 74.8495 3.6469 -178.343181 30.532654 -177.851444 1.073732 15.39412 178.082973 1.123897 8.586766 -179.802521 -14.712617 17.259207 -69.54331 32.475761 6.230337 45.93621 15.195419 0.642021 4.810412 18.949573 2.891671 17.200111 -9.850851 36.62171 18.778298 39.438855 -2.706024 43.431766 -91.210104 5.982696 39.422237 60.457523 -68.906129 46.569491 -165.819407 -6.778152 97.201645 -121.590934 10.266703 28.474519 73.286424 -61.848562 30.875723 174.673676 2.489665 145.639647 2.425818 -52.871274 -8.467492 171.669399 53.774182 -157.156033 -122.001493 -17.492824 -159.021829 -121.182568 -39.824913 -163.164497 17.522189 34.854961 -15.965643 -170.328965 -63.104617 -161.927239 -4.726868 -54.59822 11.071859 -76.847453 18.985714 24.204795 -146.787424 -20.650318 -58.355276 174.415521 14.189646 -145.476778 -29.309144 -39.627212 -6.679695 -14.074267 -19.654664 11.926757 121.585895 31.084501 -111.699198 160.657341 -19.731726 -108.583959 6.960171 -47.000582 19.347369 -4.122433 20.230303 -28.309383 -3.725742 17.043096 1.057995 0.076964 33.104819 -28.716279 131.13143 36.075429 125.641867 -52.380608 -10.334322 41.778807 -78.131279 19.532351 -19.365428 86.692037 -18.341038 2.550282 2.809063 73.943719 121.346105 176.328654 16.72941 140.685147 -55.286283 38.547495 -63.56248 87.639718 16.004217 14.2903 -60.324767 34.096391 -34.424668 19.401596 15.349091 115.838145
-1.9124999999999999 78.82820000000001 2.0553 -178.988818 30.935474 -179.640277 1.666723 21.03779 -9.766207 -1.862077 -14.155152 12.527095 -6.685665 9.71645 -32.539575 17.547394 -13.537329 6.890947 35.534007 2.386379 7.438047 17.280445 1.969893 12.910126 -12.196715 41.5799 22.726962 -137.149231 4.907254 133.270664 21.027758 -32.855484 -94.272274 -177.948084 -1.503379 149.057993 16.240968 -22.317606 -25.472723 48.418097 -60.56953 -31.180141 11.838441 -12.520598 4.410062 -149.649042 35.051435 146.776981 -6.468225 23.086312 -1.507865 -5.061346 -28.839372 -21.29109 -117.398803 -19.75909 -136.2455 20.528144 -41.789389 -33.178651 106.080656 55.062264 -68.342501 139.089902 46.926359 -159.84929 3.552071 17.733832 -15.006703 -54.235736 8.833289 -47.36255 1.592103 -9.902565 -67.530165 9.747824 3.550778 -0.56279 71.844347 40.134943 -30.820779 -8.106915 -18.415543 -36.837056 -20.157697 -34.364958 24.756074 170.407041 -15.306709 -118.714647 1.831309 43.657376 4.860649 83.334426 36.749678 -32.000235 -8.620669 -12.301915 -5.43012 133.482835 -21.72397 178.656437 -23.401966 3.425908 27.444439 -177.208872 9.873653 -167.780739 -94.190873 16.698692 -13.465001 97.515553 -21.513889 -170.899969 -43.914681 -72.327405 -117.711699 138.717599 69.873318 134.09919 -8.28557 -10.660535 -18.095005 10.809065 -20.507165 146.253397 54.977288 -33.204735 -64.320189 64.548942 -40.627723 -14.794403
-3.1193999999999997 81.37140000000001 0.2012 -179.578102 35.33891 -179.731002 -2.434941 20.928774 -0.092409 -1.409367 -13.852794 11.418723 -0.287941 8.644784 -0.920548 1.039152 -21.096352 -25.714454 43.333166 11.40444 28.217459 7.539941 0.589119 8.922467 -130.894459 52.93566 140.119653 -84.74444 56.575307 56.716088 171.595412 29.853041 -109.761354 -18.687733 18.69495 5.574122 -25.393921 52.266887 -7.719532 17.338204 -18.158943 48.922759 139.662549 -65.495737 81.643557 68.61265 -57.843979 24.213002 -28.323275 56.960728 25.460238 -12.119578 55.681561 -36.950659 -88.437531 -32.829416 -107.965965 63.793855 34.420033 -10.476333 -168.774851 11.116385 -96.709752 -132.320502 15.88291 -48.961242 -24.205893 -46.790291 -10.270902 -67.814809 15.704337 10.185679 -162.129618 -24.33594 -69.417994 172.33998 9.136967 -145.480546 2.610857 -3.683581 3.699716 102.065032 -50.207723 -148.218999 -22.878479 -27.645497 14.070208 167.677391 -7.59802 -123.738191 140.482461 -19.38852 -162.263159 165.688286 55.543116 158.272292 -8.79889 13.703933 2.019578 -47.994486 -42.695209 -20.061804 -70.845553 42.220142 33.3247 77.310722 -43.132864 7.899868 163.091384 74.794411 -37.632375 -149.566419 20.583094 93.863423 63.159127 -70.310503 8.35913 -21.619551 18.367455 -124.397285 -100.937861 55.904693 -59.312813 130.85922 35.372023 -125.649875 -51.681397 -49.511351 -135.410762 -171.16445 2.575039 79.916155
